<svg width="48" height="48" viewBox="0 0 48 48" fill="none" xmlns="http://www.w3.org/2000/svg">
<g clip-path="url(#clip0_3_45)">
<path fill-rule="evenodd" clip-rule="evenodd" d="M43.8356 28.5699L44.9367 37H40.5463L43.8356 28.5699ZM39.6384 28.9563L42.8208 20.8003L41.4807 10.54L31.1487 27.64L20.7807 10.54L17.3247 37H21.7167L23.4807 21.664L31.1487 34.66L38.8167 21.664L39.6384 28.9563Z" fill="#F7AB08"/>
<path d="M21.168 30.52H7.848L8.676 26.92H20.376L21.168 30.52ZM14.58 18.928L10.584 28.288L10.476 29.332L7.056 37H2.268L14.58 10.396L26.892 37H22.104L18.612 29.116L18.54 28.18L14.58 18.928Z" fill="black"/>
</g>
<defs>
<clipPath id="clip0_3_45">
<rect width="48" height="48" fill="white"/>
</clipPath>
</defs>
</svg>
